<svg width="160" height="160" viewBox="0 0 160 160" fill="none" xmlns="http://www.w3.org/2000/svg">
    <path
        d="M131 0H29C12.9837 0 0 12.9837 0 29V131C0 147.016 12.9837 160 29 160H131C147.016 160 160 147.016 160 131V29C160 12.9837 147.016 0 131 0Z"
        fill="#0E1E34" />
    <path
        d="M108.461 112.875C103.648 112.875 99.3672 112.094 95.6172 110.531C91.888 108.948 88.9609 106.792 86.8359 104.062C84.7109 101.333 83.6484 98.2396 83.6484 94.7812C83.6484 92.1146 84.2526 89.6667 85.4609 87.4375C86.6901 85.1875 88.3568 83.3229 90.4609 81.8438C92.5651 80.3437 94.9193 79.3854 97.5234 78.9688V78.5313C94.1068 77.8438 91.3359 76.1875 89.2109 73.5625C87.0859 70.9167 86.0234 67.8438 86.0234 64.3438C86.0234 61.0313 86.9922 58.0833 88.9297 55.5C90.8672 52.8958 93.5234 50.8542 96.8984 49.375C100.294 47.875 104.148 47.125 108.461 47.125C112.773 47.125 116.617 47.875 119.992 49.375C123.388 50.875 126.055 52.9271 127.992 55.5312C129.93 58.1146 130.909 61.0521 130.93 64.3438C130.909 67.8646 129.826 70.9375 127.68 73.5625C125.534 76.1875 122.784 77.8438 119.43 78.5313V78.9688C121.992 79.3854 124.315 80.3437 126.398 81.8438C128.503 83.3229 130.169 85.1875 131.398 87.4375C132.648 89.6667 133.284 92.1146 133.305 94.7812C133.284 98.2396 132.211 101.333 130.086 104.062C127.961 106.792 125.023 108.948 121.273 110.531C117.544 112.094 113.273 112.875 108.461 112.875ZM108.461 102.938C110.607 102.938 112.482 102.552 114.086 101.781C115.69 100.99 116.94 99.9062 117.836 98.5312C118.753 97.1354 119.211 95.5313 119.211 93.7188C119.211 91.8646 118.742 90.2292 117.805 88.8125C116.867 87.375 115.596 86.25 113.992 85.4375C112.388 84.6042 110.544 84.1875 108.461 84.1875C106.398 84.1875 104.555 84.6042 102.93 85.4375C101.305 86.25 100.023 87.375 99.0859 88.8125C98.1693 90.2292 97.7109 91.8646 97.7109 93.7188C97.7109 95.5313 98.1589 97.1354 99.0547 98.5312C99.9505 99.9062 101.211 100.99 102.836 101.781C104.461 102.552 106.336 102.938 108.461 102.938ZM108.461 74.3438C110.253 74.3438 111.846 73.9792 113.242 73.25C114.638 72.5208 115.732 71.5104 116.523 70.2188C117.315 68.9271 117.711 67.4375 117.711 65.75C117.711 64.0833 117.315 62.625 116.523 61.375C115.732 60.1042 114.648 59.1146 113.273 58.4063C111.898 57.6771 110.294 57.3125 108.461 57.3125C106.648 57.3125 105.044 57.6771 103.648 58.4063C102.253 59.1146 101.159 60.1042 100.367 61.375C99.5964 62.625 99.2109 64.0833 99.2109 65.75C99.2109 67.4375 99.6068 68.9271 100.398 70.2188C101.19 71.5104 102.284 72.5208 103.68 73.25C105.076 73.9792 106.669 74.3438 108.461 74.3438Z"
        fill="#FDEBCE" />
    <path
        d="M27.9844 112V48H53.2344C58.0885 48 62.224 48.9271 65.6406 50.7813C69.0573 52.6146 71.6615 55.1667 73.4531 58.4375C75.2656 61.6875 76.1719 65.4375 76.1719 69.6875C76.1719 73.9375 75.2552 77.6875 73.4219 80.9375C71.5885 84.1875 68.9323 86.7187 65.4531 88.5312C61.9948 90.3437 57.8073 91.25 52.8906 91.25H36.7969V80.4062H50.7031C53.3073 80.4062 55.4531 79.9583 57.1406 79.0625C58.849 78.1458 60.1198 76.8854 60.9531 75.2813C61.8073 73.6563 62.2344 71.7917 62.2344 69.6875C62.2344 67.5625 61.8073 65.7083 60.9531 64.125C60.1198 62.5208 58.849 61.2813 57.1406 60.4063C55.4323 59.5104 53.2656 59.0625 50.6406 59.0625H41.5156V112H27.9844Z"
        fill="#FDEBCE" />
</svg>